<svg width="10" height="22" viewBox="0 0 10 22" fill="none" xmlns="http://www.w3.org/2000/svg">
<path fill-rule="evenodd" clip-rule="evenodd" d="M5.19561 0.195941C5.26472 0.194471 5.40292 0.204762 5.50436 0.216522C5.60581 0.229752 5.73813 0.250333 5.79841 0.262093C5.85869 0.275324 5.99101 0.312075 6.09246 0.344416C6.19391 0.378227 6.35857 0.445849 6.46002 0.497301C6.56147 0.548753 6.69085 0.622255 6.74966 0.660476C6.80847 0.698698 6.90991 0.77514 6.97754 0.828062C7.04518 0.880983 7.1672 0.997117 7.25101 1.08532C7.33481 1.17352 7.44508 1.30583 7.49654 1.37786C7.548 1.44989 7.62592 1.57338 7.66856 1.64982C7.71119 1.72626 7.77441 1.85857 7.8097 1.94383C7.84498 2.02909 7.88909 2.15404 7.90968 2.22314C7.92879 2.29223 7.95966 2.42012 7.97584 2.5098C7.99348 2.60829 8.00818 2.76558 8.01406 2.91406C8.01994 3.09488 8.01553 3.20366 7.99789 3.34037C7.98466 3.44181 7.95672 3.59322 7.93614 3.67848C7.91556 3.76375 7.86851 3.90928 7.83175 4.00189C7.795 4.09451 7.74501 4.21064 7.72001 4.25915C7.69649 4.30766 7.64356 4.40028 7.6024 4.46496C7.5627 4.52964 7.49213 4.63254 7.44655 4.69135C7.40097 4.75162 7.31423 4.85452 7.25395 4.9192C7.19367 4.98389 7.08487 5.08532 7.01136 5.14706C6.93785 5.20733 6.82023 5.29554 6.74672 5.34405C6.6732 5.39109 6.535 5.469 6.43797 5.51751C6.34093 5.56456 6.18803 5.62777 6.09981 5.65717C6.0116 5.68657 5.86163 5.72626 5.76901 5.74684C5.63228 5.77624 5.54259 5.78506 5.30588 5.79094C5.07653 5.79682 4.97508 5.79388 4.84276 5.77477C4.75013 5.76154 4.61046 5.73361 4.53401 5.7145C4.45755 5.69539 4.34435 5.66158 4.28407 5.63953C4.22379 5.61895 4.11499 5.57338 4.04148 5.53956C3.96797 5.50428 3.84594 5.4396 3.76948 5.39256C3.69303 5.34552 3.58717 5.27349 3.53424 5.23232C3.48132 5.19116 3.3931 5.11766 3.33723 5.06915C3.28136 5.01917 3.1858 4.92361 3.12552 4.85452C3.06524 4.78543 2.97261 4.66636 2.91821 4.58991C2.86529 4.51347 2.77413 4.35765 2.71679 4.24445C2.65945 4.13126 2.58888 3.9622 2.55948 3.86959C2.5286 3.77698 2.49185 3.63438 2.47567 3.55353C2.4595 3.47268 2.43745 3.31685 2.42863 3.20807C2.41539 3.05665 2.41539 2.9611 2.42863 2.80381C2.43745 2.69061 2.4595 2.53185 2.47567 2.45099C2.49185 2.37014 2.5286 2.23196 2.55654 2.14228C2.58447 2.05261 2.65063 1.89532 2.70209 1.78947C2.75208 1.68363 2.84176 1.52927 2.8991 1.44401C2.95644 1.35875 3.05495 1.22938 3.11817 1.15735C3.18139 1.08385 3.29019 0.975066 3.35929 0.914795C3.42839 0.854523 3.54748 0.76044 3.62393 0.706048C3.70038 0.651656 3.85476 0.560513 3.96797 0.503181C4.08117 0.445849 4.25319 0.373817 4.35023 0.342946C4.44726 0.312075 4.58253 0.273854 4.65163 0.260623C4.72073 0.247393 4.84276 0.226812 4.92362 0.216522C5.00448 0.206232 5.12651 0.197411 5.19561 0.195941ZM4.70603 1.20733C4.64427 1.2235 4.53548 1.2632 4.46344 1.29407C4.39286 1.32494 4.27966 1.38521 4.21055 1.43078C4.14145 1.47488 4.04001 1.55133 3.98267 1.59984C3.92533 1.64835 3.83417 1.74684 3.77683 1.8174C3.71949 1.88797 3.64598 1.99381 3.6107 2.05114C3.57688 2.10994 3.52983 2.20256 3.50631 2.25989C3.48279 2.31575 3.44603 2.41865 3.42692 2.48775C3.40633 2.55684 3.38134 2.67297 3.37252 2.745C3.36076 2.82733 3.35635 2.95816 3.36223 3.09046C3.36811 3.24923 3.37987 3.34037 3.40633 3.44328C3.42692 3.51972 3.46367 3.63585 3.48867 3.70053C3.51219 3.76522 3.56806 3.87694 3.6107 3.94897C3.65333 4.01954 3.73126 4.13273 3.78419 4.19741C3.83711 4.26209 3.93268 4.36059 3.99737 4.41351C4.06206 4.4679 4.14439 4.53111 4.18115 4.5561C4.21791 4.58109 4.30612 4.63107 4.37963 4.66783C4.45314 4.70458 4.55459 4.74868 4.60752 4.76632C4.66045 4.78396 4.76042 4.81189 4.831 4.82659C4.90304 4.84129 5.03536 4.85893 5.12504 4.86334C5.22355 4.86922 5.34852 4.86628 5.43085 4.85599C5.50731 4.8457 5.62345 4.82512 5.68814 4.80895C5.75284 4.79131 5.86163 4.75603 5.93073 4.7281C5.99984 4.70017 6.10128 4.65019 6.15862 4.61637C6.21596 4.58256 6.31447 4.51494 6.37916 4.46496C6.44385 4.41498 6.53647 4.33118 6.58352 4.27973C6.63204 4.22828 6.70261 4.14008 6.74378 4.08275C6.78347 4.02542 6.84669 3.91663 6.88639 3.84019C6.92462 3.76375 6.97313 3.64761 6.99372 3.58293C7.0143 3.51825 7.04223 3.40506 7.05694 3.33302C7.07311 3.24776 7.08193 3.13016 7.08193 3.00226C7.08193 2.87437 7.07311 2.75676 7.05694 2.6715C7.04223 2.59947 7.0143 2.48628 6.99372 2.42159C6.97313 2.35691 6.93638 2.26136 6.91285 2.20844C6.88933 2.15551 6.82611 2.04673 6.77171 1.96588C6.71437 1.87768 6.61881 1.76301 6.535 1.67922C6.45708 1.60131 6.33799 1.50134 6.26889 1.45577C6.19979 1.4102 6.08805 1.34552 6.01895 1.31318C5.94985 1.28084 5.83517 1.2382 5.76166 1.21615C5.68814 1.19557 5.56611 1.16764 5.48966 1.15735C5.41321 1.14559 5.28383 1.13677 5.20297 1.13677C5.1221 1.13824 5.00301 1.14706 4.93832 1.15735C4.87363 1.16617 4.76925 1.18969 4.70603 1.20733Z" fill="black"/>
<path fill-rule="evenodd" clip-rule="evenodd" d="M5.18816 6.26843C6.6682 6.26647 7.45968 6.27039 7.5626 6.28019C7.64787 6.28902 7.78019 6.3096 7.85665 6.32724C7.9331 6.34341 8.05513 6.37722 8.12864 6.40074C8.20215 6.42573 8.33006 6.47865 8.41534 6.51834C8.50061 6.55803 8.63293 6.63154 8.70939 6.68299C8.78584 6.73297 8.91081 6.82558 8.98579 6.88732C9.0593 6.94907 9.17398 7.06226 9.23867 7.13723C9.30483 7.21073 9.39893 7.33569 9.45039 7.41213C9.50184 7.48857 9.5783 7.62088 9.62093 7.70614C9.66357 7.7914 9.72385 7.93694 9.75325 8.02955C9.78413 8.12216 9.8253 8.27505 9.87823 8.53672V14.4463L9.83706 14.5757C9.81501 14.6462 9.7709 14.755 9.74002 14.8182C9.70915 14.88 9.65181 14.9726 9.61505 15.024C9.5783 15.074 9.5092 15.1519 9.46215 15.1975C9.41657 15.2431 9.33865 15.3092 9.29013 15.3445C9.24161 15.3783 9.14605 15.4342 9.07695 15.4665C9.00784 15.4989 8.89905 15.54 8.83436 15.5562C8.7682 15.5738 8.6447 15.5915 8.55501 15.5959C8.43886 15.6018 8.358 15.5974 8.26831 15.5812C8.19921 15.568 8.11541 15.5474 8.01837 15.5121V17.8392C8.01837 19.7988 8.01543 20.1854 7.99632 20.2971C7.98456 20.3706 7.95515 20.4882 7.92869 20.5617C7.90369 20.6352 7.86988 20.7205 7.85371 20.7528C7.83753 20.7852 7.78755 20.8675 7.74344 20.9366C7.69786 21.0057 7.60524 21.1174 7.53466 21.1865C7.46556 21.2556 7.36559 21.3423 7.31266 21.3776C7.25973 21.4129 7.16711 21.4673 7.10683 21.4967C7.04655 21.5275 6.95392 21.5657 6.90099 21.5834C6.84806 21.601 6.74221 21.6275 6.66575 21.6437C6.58636 21.6598 6.46727 21.6716 6.38935 21.6716C6.31584 21.6716 6.1894 21.6584 6.11 21.6437C6.03208 21.629 5.92475 21.601 5.87182 21.5834C5.8189 21.5657 5.72039 21.5231 5.65129 21.4878C5.58219 21.454 5.47339 21.3849 5.4087 21.3364C5.34401 21.2879 5.27491 21.2306 5.21757 21.1732L5.13671 21.2482C5.0926 21.2894 5.00291 21.3585 4.93822 21.4011C4.87353 21.4437 4.78091 21.4967 4.73239 21.5172C4.68387 21.5393 4.60742 21.5702 4.56331 21.5849C4.51921 21.601 4.41629 21.626 4.33543 21.6422C4.25456 21.6584 4.12959 21.6716 4.05608 21.6716C3.98257 21.6716 3.86789 21.6613 3.79879 21.6481C3.72969 21.6348 3.62089 21.6084 3.5562 21.5878C3.49151 21.5672 3.37977 21.5202 3.30626 21.482C3.23275 21.4452 3.11807 21.3702 3.04897 21.3173C2.97987 21.2644 2.88724 21.1791 2.84166 21.1262C2.79609 21.0748 2.73287 20.9924 2.70052 20.9439C2.6667 20.8954 2.61819 20.8087 2.59025 20.7528C2.56085 20.6969 2.52409 20.6073 2.50645 20.5544C2.48734 20.5014 2.46234 20.4162 2.44911 20.3632C2.42853 20.278 2.42559 20.0207 2.41529 15.5194L2.29473 15.5547C2.19035 15.5856 2.14477 15.5915 1.94629 15.5915C1.74045 15.5915 1.70517 15.5871 1.58608 15.5503C1.51257 15.5283 1.40083 15.4842 1.33614 15.4533C1.27145 15.4209 1.16265 15.3504 1.09355 15.296C1.02445 15.2416 0.925942 15.1431 0.873013 15.077C0.820084 15.0108 0.749513 14.902 0.715698 14.8344C0.681882 14.7668 0.637775 14.6521 0.618662 14.5786C0.598078 14.5051 0.574555 14.4066 0.565733 14.3581C0.553971 14.2949 0.549561 13.4614 0.549561 11.4724C0.549561 8.71018 0.549561 8.67343 0.580436 8.47498C0.596608 8.36325 0.633364 8.19714 0.661299 8.10746C0.689233 8.01632 0.739221 7.87667 0.774507 7.79875C0.808323 7.71937 0.871543 7.59883 0.91271 7.52974C0.953876 7.46064 1.02886 7.35186 1.07738 7.28718C1.12736 7.2225 1.22587 7.11077 1.29644 7.03874C1.36701 6.96818 1.48316 6.86233 1.55667 6.80647C1.63019 6.74914 1.74486 6.66976 1.81397 6.6286C1.88307 6.58743 2.00363 6.52422 2.08155 6.49041C2.16094 6.45513 2.30061 6.40515 2.3903 6.37722C2.48145 6.34929 2.62554 6.31695 2.71081 6.30372C2.79609 6.29049 2.88871 6.27872 2.91664 6.27578C2.94458 6.27284 3.96787 6.26843 5.18816 6.26843ZM2.57114 7.296C2.52262 7.31364 2.42706 7.35627 2.35795 7.39155C2.28885 7.42683 2.19035 7.48857 2.13742 7.52826C2.08449 7.56796 1.99481 7.64881 1.93894 7.70761C1.8816 7.76788 1.80661 7.85903 1.76986 7.91195C1.73457 7.96487 1.67723 8.0663 1.64195 8.1398C1.60813 8.21331 1.56108 8.33826 1.53903 8.41911L1.49786 8.56612V14.3434C1.55814 14.4581 1.59784 14.511 1.62578 14.5375C1.65224 14.5624 1.70076 14.5977 1.7331 14.6139C1.76545 14.6301 1.82867 14.6506 1.87278 14.6595C1.92864 14.6698 1.97863 14.6698 2.0345 14.6595C2.07861 14.6506 2.14771 14.6257 2.18741 14.6036C2.2271 14.5816 2.2815 14.5375 2.30944 14.5051C2.3359 14.4728 2.37266 14.411 2.38736 14.3699C2.41676 14.2934 2.41676 14.242 2.41676 12.1457V9.99941H3.35772C3.35772 19.6767 3.35919 20.1574 3.38124 20.2309C3.39447 20.275 3.42094 20.3412 3.44152 20.3779C3.4621 20.4147 3.51356 20.4794 3.55473 20.522C3.5959 20.5646 3.66206 20.619 3.70322 20.6426C3.74292 20.6661 3.81643 20.6955 3.86495 20.7072C3.91347 20.7205 3.99874 20.7308 4.05608 20.7308C4.11342 20.7308 4.19134 20.7219 4.23251 20.7116C4.2722 20.6999 4.33837 20.6764 4.37806 20.6558C4.41923 20.6367 4.48833 20.5867 4.53244 20.5455C4.57801 20.5044 4.63535 20.4309 4.66182 20.3838C4.68681 20.3368 4.71916 20.2574 4.73092 20.2089C4.7515 20.131 4.75444 19.8237 4.75444 17.3982V14.6742H5.68069C5.68069 19.7473 5.68363 20.1045 5.70422 20.1942C5.71598 20.2501 5.74391 20.3294 5.76597 20.3691C5.78802 20.4088 5.82919 20.4676 5.85712 20.5C5.88506 20.5338 5.94828 20.5852 5.9968 20.6161C6.04531 20.6484 6.12765 20.6867 6.18057 20.7028C6.23938 20.7205 6.31878 20.7308 6.38641 20.7308C6.45404 20.7308 6.53343 20.7205 6.59224 20.7028C6.64517 20.6867 6.73044 20.6455 6.7819 20.6102C6.83483 20.5749 6.89805 20.5205 6.92452 20.4882C6.95098 20.4559 6.99215 20.3868 7.01714 20.3338C7.04213 20.2809 7.0686 20.1913 7.07742 20.1354C7.08624 20.0678 7.09212 18.3067 7.09212 15.0167V9.99941H8.01837L8.02572 14.314C8.09924 14.4684 8.1404 14.5228 8.17422 14.5507C8.20656 14.5757 8.25508 14.608 8.28302 14.6227C8.31095 14.6374 8.37123 14.6536 8.41534 14.6609C8.46386 14.6683 8.52855 14.6668 8.57706 14.658C8.62117 14.6492 8.68439 14.6271 8.71674 14.608C8.74908 14.5904 8.80201 14.5463 8.83289 14.511C8.86523 14.4757 8.90493 14.4169 8.9211 14.3802C8.95197 14.314 8.95197 14.3052 8.95639 11.5944C8.95933 9.92738 8.95492 8.81162 8.94609 8.71312C8.93874 8.62492 8.91816 8.49556 8.90052 8.42646C8.88287 8.35737 8.84465 8.24565 8.81377 8.17656C8.78437 8.10746 8.72703 8.00162 8.68733 7.94135C8.64764 7.88108 8.56383 7.77964 8.50355 7.71496C8.44327 7.65175 8.35653 7.5709 8.31242 7.53709C8.26831 7.50327 8.18598 7.44888 8.12864 7.41654C8.0713 7.3842 7.98309 7.3401 7.93016 7.31952C7.87723 7.29894 7.78166 7.2666 7.71697 7.24749L7.59936 7.21514C3.01368 7.20779 2.91959 7.20926 2.79167 7.23573C2.71816 7.2519 2.61966 7.27836 2.57114 7.296Z" fill="black"/>
</svg>
