<svg width="20" height="45" viewBox="0 0 20 45" fill="none" xmlns="http://www.w3.org/2000/svg">
<path fill-rule="evenodd" clip-rule="evenodd" d="M9.60086 0.0729194C9.74238 0.0699088 10.0254 0.0909831 10.2332 0.115068C10.4409 0.142164 10.7119 0.184312 10.8354 0.208397C10.9588 0.235493 11.2298 0.310758 11.4376 0.376992C11.6453 0.446236 11.9826 0.584724 12.1903 0.690096C12.3981 0.795467 12.6631 0.945998 12.7835 1.02427C12.9039 1.10255 13.1117 1.2591 13.2502 1.36748C13.3887 1.47587 13.6386 1.7137 13.8102 1.89434C13.9819 2.07498 14.2077 2.34593 14.3131 2.49345C14.4185 2.64097 14.5781 2.89387 14.6654 3.05042C14.7527 3.20697 14.8822 3.47793 14.9544 3.65254C15.0267 3.82716 15.117 4.08306 15.1592 4.22456C15.1983 4.36606 15.2616 4.62798 15.2947 4.81163C15.3308 5.01334 15.3609 5.33547 15.373 5.63955C15.385 6.00985 15.376 6.23264 15.3398 6.51263C15.3127 6.72036 15.2555 7.03045 15.2134 7.20507C15.1712 7.37968 15.0749 7.67773 14.9996 7.8674C14.9243 8.05707 14.8219 8.29491 14.7708 8.39426C14.7226 8.49361 14.6142 8.68328 14.5299 8.81575C14.4486 8.94821 14.3041 9.15896 14.2107 9.27938C14.1174 9.40282 13.9397 9.61356 13.8163 9.74603C13.6928 9.87849 13.47 10.0862 13.3195 10.2127C13.1689 10.3361 12.928 10.5167 12.7775 10.6161C12.6269 10.7124 12.3439 10.872 12.1452 10.9713C11.9464 11.0677 11.6333 11.1971 11.4526 11.2574C11.272 11.3176 10.9648 11.3989 10.7752 11.441C10.4951 11.5012 10.3115 11.5193 9.82668 11.5313C9.35697 11.5434 9.14921 11.5373 8.87822 11.4982C8.68852 11.4711 8.40248 11.4139 8.2459 11.3748C8.08933 11.3356 7.85748 11.2664 7.73403 11.2212C7.61058 11.1791 7.38777 11.0858 7.23722 11.0165C7.08667 10.9443 6.83675 10.8118 6.68018 10.7154C6.52361 10.6191 6.30682 10.4716 6.19842 10.3873C6.09002 10.303 5.90936 10.1525 5.79495 10.0531C5.68053 9.95075 5.48481 9.75506 5.36136 9.61356C5.23791 9.47206 5.04822 9.2282 4.93681 9.07165C4.82841 8.9151 4.64173 8.59597 4.5243 8.36415C4.40687 8.13234 4.26234 7.78612 4.20212 7.59645C4.13889 7.40678 4.06362 7.11475 4.03049 6.94916C3.99737 6.78358 3.95221 6.46446 3.93414 6.24167C3.90704 5.93158 3.90704 5.73589 3.93414 5.41375C3.95221 5.18193 3.99737 4.85679 4.03049 4.6912C4.06362 4.52562 4.13889 4.24262 4.1961 4.05897C4.25331 3.87533 4.3888 3.55319 4.49419 3.33643C4.59656 3.11966 4.78024 2.80355 4.89766 2.62893C5.01509 2.45432 5.21683 2.18938 5.34631 2.04186C5.47578 1.89133 5.69859 1.66855 5.84011 1.54511C5.98163 1.42168 6.22552 1.229 6.38209 1.1176C6.53866 1.00621 6.85482 0.819552 7.08667 0.702138C7.31851 0.584724 7.6708 0.437204 7.86953 0.373981C8.06826 0.310758 8.34527 0.232482 8.48679 0.205387C8.6283 0.178291 8.87822 0.136142 9.04382 0.115068C9.20943 0.0939938 9.45934 0.0759301 9.60086 0.0729194ZM8.59819 2.14422C8.47173 2.17734 8.24892 2.25863 8.10138 2.32185C7.95685 2.38507 7.725 2.50851 7.58348 2.60184C7.44197 2.69215 7.23421 2.84871 7.11678 2.94806C6.99935 3.04741 6.81267 3.24912 6.69524 3.39363C6.57781 3.53814 6.42726 3.7549 6.35499 3.87232C6.28574 3.99274 6.18939 4.18241 6.14121 4.29982C6.09303 4.41423 6.01776 4.62497 5.97862 4.76647C5.93646 4.90797 5.88528 5.14581 5.86721 5.29333C5.84312 5.46192 5.83409 5.72987 5.84613 6.00082C5.85818 6.32597 5.88226 6.51263 5.93646 6.72337C5.97862 6.87992 6.05389 7.11776 6.10508 7.25023C6.15325 7.38269 6.26767 7.6115 6.35499 7.75902C6.44231 7.90353 6.60189 8.13535 6.71029 8.26781C6.81869 8.40028 7.0144 8.60199 7.14689 8.71037C7.27937 8.82177 7.44799 8.95122 7.52326 9.0024C7.59854 9.05359 7.7792 9.15595 7.92975 9.23121C8.0803 9.30648 8.28806 9.3968 8.39646 9.43292C8.50485 9.46905 8.7096 9.52625 8.85413 9.55636C9.00167 9.58646 9.27266 9.62259 9.45633 9.63162C9.65807 9.64367 9.914 9.63764 10.0826 9.61657C10.2392 9.5955 10.4771 9.55335 10.6095 9.52023C10.742 9.4841 10.9648 9.41185 11.1064 9.35465C11.2479 9.29744 11.4556 9.19508 11.5731 9.12584C11.6905 9.0566 11.8922 8.91811 12.0247 8.81575C12.1572 8.71339 12.3469 8.54178 12.4432 8.43641C12.5426 8.33104 12.6871 8.1504 12.7714 8.03299C12.8527 7.91557 12.9822 7.69279 13.0635 7.53623C13.1418 7.37968 13.2412 7.14184 13.2833 7.00938C13.3255 6.87691 13.3827 6.64509 13.4128 6.49757C13.4459 6.32296 13.464 6.08211 13.464 5.82018C13.464 5.55826 13.4459 5.31741 13.4128 5.1428C13.3827 4.99528 13.3255 4.76346 13.2833 4.63099C13.2412 4.49852 13.1659 4.30283 13.1177 4.19445C13.0695 4.08607 12.9401 3.86328 12.8287 3.6977C12.7112 3.51706 12.5155 3.28224 12.3439 3.11063C12.1843 2.95107 11.9404 2.74635 11.7989 2.65302C11.6574 2.55969 11.4285 2.42722 11.287 2.36099C11.1455 2.29475 10.9106 2.20745 10.7601 2.16229C10.6095 2.12014 10.3596 2.06294 10.2031 2.04186C10.0465 2.01778 9.78152 1.99971 9.61591 1.99971C9.45031 2.00272 9.20642 2.02079 9.07393 2.04186C8.94145 2.05993 8.72767 2.1081 8.59819 2.14422Z" fill="white"/>
<path fill-rule="evenodd" clip-rule="evenodd" d="M9.58566 12.5098C12.6167 12.5058 14.2377 12.5138 14.4484 12.5339C14.6231 12.5519 14.8941 12.5941 15.0506 12.6302C15.2072 12.6633 15.4571 12.7326 15.6077 12.7807C15.7582 12.8319 16.0202 12.9403 16.1948 13.0216C16.3695 13.1029 16.6405 13.2534 16.797 13.3588C16.9536 13.4611 17.2095 13.6508 17.3631 13.7773C17.5136 13.9037 17.7485 14.1355 17.881 14.2891C18.0165 14.4396 18.2092 14.6955 18.3146 14.8521C18.42 15.0086 18.5765 15.2796 18.6639 15.4542C18.7512 15.6288 18.8746 15.9268 18.9348 16.1165C18.9981 16.3062 19.0824 16.6193 19.1908 17.1552V29.2578L19.1065 29.5228C19.0613 29.6673 18.971 29.8901 18.9077 30.0195C18.8445 30.146 18.7271 30.3356 18.6518 30.441C18.5765 30.5434 18.435 30.7029 18.3387 30.7963C18.2453 30.8896 18.0857 31.0251 17.9864 31.0973C17.887 31.1666 17.6913 31.281 17.5498 31.3472C17.4083 31.4134 17.1854 31.4977 17.053 31.5309C16.9175 31.567 16.6645 31.6031 16.4809 31.6121C16.243 31.6242 16.0774 31.6152 15.8937 31.582C15.7522 31.5549 15.5806 31.5128 15.3819 31.4405V36.2063C15.3819 40.2195 15.3758 41.0113 15.3367 41.2401C15.3126 41.3906 15.2524 41.6315 15.1982 41.782C15.147 41.9325 15.0777 42.1071 15.0446 42.1734C15.0115 42.2396 14.9091 42.4082 14.8188 42.5497C14.7255 42.6912 14.5358 42.92 14.3912 43.0615C14.2497 43.203 14.045 43.3806 13.9366 43.4529C13.8282 43.5251 13.6385 43.6365 13.515 43.6968C13.3916 43.76 13.2019 43.8383 13.0935 43.8744C12.9851 43.9105 12.7683 43.9647 12.6117 43.9978C12.4491 44.0309 12.2052 44.055 12.0457 44.055C11.8951 44.055 11.6362 44.0279 11.4736 43.9978C11.314 43.9677 11.0942 43.9105 10.9858 43.8744C10.8774 43.8383 10.6756 43.7509 10.5341 43.6787C10.3926 43.6094 10.1698 43.4679 10.0373 43.3686C9.90483 43.2692 9.76331 43.1518 9.64588 43.0344L9.48028 43.188C9.38995 43.2723 9.20628 43.4138 9.07379 43.5011C8.94131 43.5884 8.75162 43.6968 8.65225 43.7389C8.55289 43.7841 8.39632 43.8473 8.30599 43.8774C8.21566 43.9105 8.00489 43.9617 7.83928 43.9948C7.67368 44.0279 7.41774 44.055 7.26719 44.055C7.11664 44.055 6.88178 44.0339 6.74026 44.0068C6.59875 43.9797 6.37593 43.9256 6.24345 43.8834C6.11096 43.8413 5.88213 43.7449 5.73158 43.6666C5.58103 43.5914 5.34617 43.4378 5.20465 43.3295C5.06313 43.2211 4.87344 43.0465 4.7801 42.9381C4.68676 42.8327 4.55728 42.6641 4.49104 42.5648C4.42179 42.4654 4.32242 42.2878 4.26522 42.1734C4.205 42.059 4.12972 41.8753 4.09359 41.7669C4.05445 41.6586 4.00326 41.4839 3.97616 41.3756C3.934 41.201 3.92798 40.6741 3.90691 31.4556L3.66 31.5278C3.44622 31.5911 3.35288 31.6031 2.94639 31.6031C2.52485 31.6031 2.45259 31.5941 2.2087 31.5188C2.05815 31.4737 1.82931 31.3833 1.69683 31.3201C1.56434 31.2539 1.34153 31.1094 1.20001 30.998C1.05849 30.8866 0.856755 30.6849 0.748359 30.5494C0.639963 30.4139 0.495434 30.1911 0.426181 30.0526C0.356928 29.9142 0.266598 29.6793 0.227455 29.5288C0.185301 29.3783 0.137125 29.1766 0.119059 29.0772C0.0949705 28.9478 0.0859375 27.2407 0.0859375 23.1674C0.0859375 17.5104 0.0859375 17.4352 0.149169 17.0287C0.18229 16.7999 0.257565 16.4597 0.314774 16.2761C0.371983 16.0894 0.474357 15.8034 0.546622 15.6438C0.615875 15.4813 0.745348 15.2344 0.829656 15.0929C0.913964 14.9514 1.06753 14.7286 1.16689 14.5961C1.26926 14.4637 1.471 14.2349 1.61553 14.0874C1.76006 13.9428 1.99793 13.7261 2.14848 13.6117C2.29903 13.4943 2.53389 13.3317 2.6754 13.2474C2.81692 13.1631 3.06382 13.0336 3.22341 12.9644C3.386 12.8921 3.67205 12.7898 3.85572 12.7326C4.0424 12.6754 4.33748 12.6091 4.51212 12.582C4.68676 12.555 4.87645 12.5309 4.93366 12.5248C4.99087 12.5188 7.08653 12.5098 9.58566 12.5098ZM4.22607 14.6142C4.12671 14.6503 3.93099 14.7376 3.78948 14.8099C3.64796 14.8822 3.44622 15.0086 3.33783 15.0899C3.22943 15.1712 3.04576 15.3368 2.93134 15.4572C2.81391 15.5806 2.66035 15.7673 2.58507 15.8757C2.51281 15.984 2.39538 16.1918 2.32312 16.3423C2.25386 16.4928 2.15751 16.7487 2.11235 16.9143L2.02804 17.2154V29.0471C2.15149 29.2819 2.23279 29.3903 2.28999 29.4445C2.34419 29.4957 2.44356 29.5679 2.5098 29.6011C2.57604 29.6342 2.70551 29.6763 2.79584 29.6944C2.91026 29.7155 3.01264 29.7155 3.12705 29.6944C3.21738 29.6763 3.3589 29.6251 3.4402 29.58C3.5215 29.5348 3.6329 29.4445 3.69011 29.3783C3.74431 29.312 3.81959 29.1856 3.8497 29.1013C3.90992 28.9447 3.90992 28.8394 3.90992 24.5462V20.1507H5.83696C5.83696 39.9696 5.83997 40.9541 5.88514 41.1046C5.91224 41.1949 5.96643 41.3304 6.00859 41.4057C6.05074 41.4809 6.15613 41.6134 6.24044 41.7007C6.32474 41.788 6.46024 41.8994 6.54455 41.9476C6.62584 41.9958 6.7764 42.056 6.87576 42.0801C6.97512 42.1071 7.14976 42.1282 7.26719 42.1282C7.38462 42.1282 7.5442 42.1102 7.62851 42.0891C7.70981 42.065 7.8453 42.0168 7.9266 41.9747C8.01091 41.9355 8.15242 41.8332 8.24275 41.7489C8.3361 41.6646 8.45353 41.5141 8.50772 41.4177C8.55891 41.3214 8.62515 41.1588 8.64924 41.0595C8.6914 40.8999 8.69742 40.2707 8.69742 35.3032V29.7245H10.5944C10.5944 40.1141 10.6004 40.8457 10.6425 41.0293C10.6666 41.1438 10.7238 41.3063 10.769 41.3876C10.8142 41.4689 10.8985 41.5893 10.9557 41.6556C11.0129 41.7248 11.1424 41.8302 11.2417 41.8934C11.3411 41.9596 11.5097 42.0379 11.6181 42.071C11.7385 42.1071 11.9011 42.1282 12.0396 42.1282C12.1781 42.1282 12.3407 42.1071 12.4612 42.071C12.5696 42.0379 12.7442 41.9536 12.8496 41.8814C12.958 41.8091 13.0875 41.6977 13.1417 41.6315C13.1959 41.5652 13.2802 41.4237 13.3314 41.3154C13.3825 41.207 13.4367 41.0233 13.4548 40.9089C13.4729 40.7704 13.4849 37.1637 13.4849 30.426V20.1507H15.3819L15.3969 28.9869C15.5475 29.303 15.6318 29.4144 15.701 29.4716C15.7673 29.5228 15.8666 29.589 15.9238 29.6191C15.981 29.6492 16.1045 29.6823 16.1948 29.6974C16.2942 29.7124 16.4267 29.7094 16.526 29.6914C16.6164 29.6733 16.7458 29.6281 16.8121 29.589C16.8783 29.5529 16.9867 29.4626 17.05 29.3903C17.1162 29.3181 17.1975 29.1976 17.2306 29.1224C17.2938 28.9869 17.2938 28.9688 17.3029 23.4173C17.3089 20.0032 17.2999 17.7182 17.2818 17.5164C17.2667 17.3358 17.2246 17.0709 17.1885 16.9294C17.1523 16.7879 17.074 16.5591 17.0108 16.4176C16.9506 16.2761 16.8332 16.0593 16.7519 15.9359C16.6706 15.8124 16.4989 15.6047 16.3755 15.4722C16.252 15.3428 16.0744 15.1772 15.9841 15.108C15.8937 15.0387 15.7251 14.9273 15.6077 14.8611C15.4902 14.7948 15.3096 14.7045 15.2012 14.6624C15.0928 14.6202 14.8971 14.554 14.7646 14.5149L14.5237 14.4486C5.13239 14.4336 4.93968 14.4366 4.67772 14.4908C4.52717 14.5239 4.32544 14.5781 4.22607 14.6142Z" fill="white"/>
</svg>
