<svg width="280" height="53" viewBox="0 0 280 53" fill="none" xmlns="http://www.w3.org/2000/svg">
<path d="M124.735 31.14C123.97 31.14 123.237 31.0327 122.537 30.818C121.837 30.594 121.282 30.3093 120.871 29.964L121.501 28.55C121.893 28.858 122.378 29.1147 122.957 29.32C123.536 29.5253 124.128 29.628 124.735 29.628C125.248 29.628 125.664 29.572 125.981 29.46C126.298 29.348 126.532 29.1987 126.681 29.012C126.83 28.816 126.905 28.5967 126.905 28.354C126.905 28.0553 126.798 27.8173 126.583 27.64C126.368 27.4533 126.088 27.3087 125.743 27.206C125.407 27.094 125.029 26.9913 124.609 26.898C124.198 26.8047 123.783 26.6973 123.363 26.576C122.952 26.4453 122.574 26.282 122.229 26.086C121.893 25.8807 121.618 25.61 121.403 25.274C121.188 24.938 121.081 24.5087 121.081 23.986C121.081 23.454 121.221 22.9687 121.501 22.53C121.79 22.082 122.224 21.7273 122.803 21.466C123.391 21.1953 124.133 21.06 125.029 21.06C125.617 21.06 126.2 21.1347 126.779 21.284C127.358 21.4333 127.862 21.648 128.291 21.928L127.717 23.342C127.278 23.0807 126.826 22.8893 126.359 22.768C125.892 22.6373 125.444 22.572 125.015 22.572C124.511 22.572 124.1 22.6327 123.783 22.754C123.475 22.8753 123.246 23.034 123.097 23.23C122.957 23.426 122.887 23.65 122.887 23.902C122.887 24.2007 122.99 24.4433 123.195 24.63C123.41 24.8073 123.685 24.9473 124.021 25.05C124.366 25.1527 124.749 25.2553 125.169 25.358C125.589 25.4513 126.004 25.5587 126.415 25.68C126.835 25.8013 127.213 25.96 127.549 26.156C127.894 26.352 128.17 26.618 128.375 26.954C128.59 27.29 128.697 27.7147 128.697 28.228C128.697 28.7507 128.552 29.236 128.263 29.684C127.983 30.1227 127.549 30.4773 126.961 30.748C126.373 31.0093 125.631 31.14 124.735 31.14ZM132.812 31L129.564 21.2H131.454L134.352 30.062H133.414L136.424 21.2H138.104L141.03 30.062H140.12L143.088 21.2H144.824L141.576 31H139.644L136.97 23.006H137.474L134.758 31H132.812ZM146.306 31V21.2H148.126V31H146.306ZM150.777 31V21.2H154.809C155.677 21.2 156.419 21.34 157.035 21.62C157.66 21.9 158.141 22.3013 158.477 22.824C158.813 23.3467 158.981 23.9673 158.981 24.686C158.981 25.4047 158.813 26.0253 158.477 26.548C158.141 27.0707 157.66 27.472 157.035 27.752C156.419 28.032 155.677 28.172 154.809 28.172H151.785L152.597 27.318V31H150.777ZM152.597 27.514L151.785 26.632H154.725C155.528 26.632 156.13 26.464 156.531 26.128C156.942 25.7827 157.147 25.302 157.147 24.686C157.147 24.0607 156.942 23.58 156.531 23.244C156.13 22.908 155.528 22.74 154.725 22.74H151.785L152.597 21.844V27.514Z" fill="#2040AE"/>
<path fill-rule="evenodd" clip-rule="evenodd" d="M2 26.3535H11.5V25.3535H2V26.3535Z" fill="#A4A4A4"/>
<path fill-rule="evenodd" clip-rule="evenodd" d="M2.20707 25.8536L5.35352 22.7071L4.64641 22L1.14641 25.5C0.951147 25.6953 0.951147 26.0118 1.14641 26.2071L4.64641 29.7071L5.35352 29L2.20707 25.8536Z" fill="#A4A4A4"/>
<path fill-rule="evenodd" clip-rule="evenodd" d="M278.5 26.3535H269V25.3535H278.5V26.3535Z" fill="#A4A4A4"/>
<path fill-rule="evenodd" clip-rule="evenodd" d="M278.293 25.8536L275.146 22.7071L275.854 22L279.354 25.5C279.549 25.6953 279.549 26.0118 279.354 26.2071L275.854 29.7071L275.146 29L278.293 25.8536Z" fill="#A4A4A4"/>
<path fill-rule="evenodd" clip-rule="evenodd" d="M139.75 51.1035L139.75 41.6035L140.75 41.6035L140.75 51.1035L139.75 51.1035Z" fill="#A4A4A4"/>
<path fill-rule="evenodd" clip-rule="evenodd" d="M140.25 50.8964L143.396 47.75L144.104 48.4571L140.604 51.9571C140.408 52.1524 140.092 52.1524 139.896 51.9571L136.396 48.4571L137.104 47.75L140.25 50.8964Z" fill="#A4A4A4"/>
<path fill-rule="evenodd" clip-rule="evenodd" d="M139.75 1L139.75 10.5L140.75 10.5L140.75 1L139.75 1Z" fill="#A4A4A4"/>
<path fill-rule="evenodd" clip-rule="evenodd" d="M140.25 1.20707L143.396 4.35352L144.104 3.64641L140.604 0.146409C140.408 -0.0488532 140.092 -0.0488532 139.896 0.146409L136.396 3.64641L137.104 4.35352L140.25 1.20707Z" fill="#A4A4A4"/>
</svg>
