<svg width="78" height="60" viewBox="0 0 78 60" fill="none" xmlns="http://www.w3.org/2000/svg">
<path fill-rule="evenodd" clip-rule="evenodd" d="M36.2222 0.00149848C36.304 -0.0121437 36.3858 0.0697096 36.3858 0.151563C36.3858 0.247059 36.1268 0.478976 35.7996 0.656325C35.4861 0.833674 34.2184 1.65221 32.9779 2.48438C31.7375 3.30292 29.87 4.62621 28.8204 5.41746C27.7708 6.20871 26.1078 7.51836 25.1399 8.30961C24.1585 9.1145 22.4955 10.5469 21.4186 11.4883C19.592 13.1253 19.4829 13.2345 19.592 13.5892C19.6601 13.8074 19.6601 14.1894 19.592 14.4486C19.4693 14.9261 19.4693 14.9261 22.55 18.0365L25.5489 16.3176C27.1983 15.3899 30.6334 13.4118 33.1824 11.9384C35.7315 10.4514 38.0488 9.19636 38.3214 9.1145C38.6486 9.03265 39.0302 9.04629 39.3438 9.12815C39.63 9.19636 41.9201 10.4378 44.4282 11.8975C46.9364 13.3436 50.3715 15.3217 55.1288 18.0365L56.6692 16.4813C58.2095 14.9261 58.2095 14.9261 58.0868 14.4486C58.0187 14.1894 58.0187 13.8074 58.0868 13.5892C58.1959 13.2481 58.1005 13.139 56.5192 11.7338C55.6059 10.9289 54.4336 9.89211 53.902 9.44192C53.3704 9.00537 52.3344 8.14591 51.5847 7.54565C50.835 6.93175 49.4582 5.86766 48.5176 5.15826C47.5771 4.46251 45.8323 3.23471 44.6327 2.42981C43.4332 1.63857 42.1927 0.833674 41.8792 0.656325C41.552 0.478976 41.293 0.247059 41.293 0.151563C41.293 0.0424251 41.4566 0.00149848 41.7974 0.0560674C42.0837 0.0833518 42.9833 0.219774 43.8148 0.342554C44.6327 0.465334 46.0504 0.738179 46.95 0.970096C47.8497 1.20201 49.4173 1.69313 50.426 2.06147C51.4347 2.44346 52.8797 3.04371 53.6294 3.38477C54.3791 3.73947 55.6468 4.40794 56.4511 4.87177C57.269 5.33561 58.523 6.12686 59.2455 6.61798C59.9816 7.12274 60.9767 7.84578 62.3534 8.96444L62.7896 8.56882C63.1032 8.29597 63.3894 8.17319 63.7166 8.17319C63.9756 8.17319 64.3027 8.22776 64.4254 8.30961C64.6162 8.40511 64.7662 8.3369 65.1479 7.95492C65.4069 7.68207 65.7885 7.38194 65.993 7.2728C66.2111 7.16367 66.511 7.1091 66.6746 7.15002C66.8518 7.19095 67.806 8.03677 68.7874 9.03265C70.355 10.6015 70.5868 10.888 70.6004 11.27C70.6004 11.611 70.4504 11.8839 69.987 12.4023C69.4145 13.0435 69.3872 13.1117 69.5099 13.5209C69.6189 13.8347 69.6053 14.0939 69.5099 14.3804C69.4281 14.6123 69.2373 14.9261 68.8283 15.4036L69.7007 16.5359C70.1778 17.1498 71.0639 18.4185 71.6909 19.3598C72.3043 20.3011 73.3403 22.1701 74.0082 23.5207C74.7034 24.9122 75.5077 26.8221 75.8893 27.9544C76.2574 29.0458 76.7208 30.601 76.9117 31.4332C77.1025 32.2654 77.3615 33.575 77.4706 34.3663C77.5933 35.1575 77.6887 35.9897 77.675 36.6172L77.4024 36.2762C77.2525 36.0852 76.53 35.0074 75.7939 33.8888C75.0715 32.7565 74.0491 31.2558 73.5311 30.5464C73.0268 29.837 71.9772 28.4592 71.2274 27.4769C70.4777 26.4947 69.3463 25.0895 68.7056 24.3392C68.0786 23.5889 66.8927 22.2247 66.0475 21.297C64.5617 19.6599 64.5208 19.6327 64.0574 19.7145C63.7711 19.7691 63.4439 19.7282 63.2395 19.6327C62.9123 19.4826 62.8169 19.5508 58.6048 23.7935V42.0741L58.3049 42.688C58.0732 43.1519 57.7869 43.4247 57.1735 43.793C56.7237 44.0659 55.3197 44.8844 54.0383 45.6075C52.757 46.3441 51.6937 46.9717 51.6528 46.999C51.612 47.0399 53.4386 48.9089 55.7014 51.1871C59.5318 55.007 59.8316 55.348 59.8316 55.7846C59.8316 56.2211 59.6544 56.4394 57.9505 58.131C56.3829 59.6999 56.0149 60 55.6741 60C55.3197 60 54.6517 59.3861 45.7232 50.4368L42.7925 52.1148C41.184 53.0425 39.63 53.861 39.3574 53.9429C39.003 54.0383 38.6758 54.0383 38.3351 53.9429C38.0488 53.861 36.5085 53.0288 32.0101 50.3959L27.2119 55.1979C23.0271 59.3861 22.3591 60 22.0047 60C21.6639 60 21.2959 59.6999 19.7283 58.131C18.0244 56.4394 17.8472 56.2211 17.8472 55.7846C17.8472 55.348 18.1471 55.007 21.9775 51.1871C24.2403 48.9089 26.0669 47.0399 26.026 46.999C25.9851 46.9717 24.9082 46.3441 23.6405 45.6075C22.3591 44.8844 20.9551 44.0659 20.5189 43.793C19.9191 43.4247 19.6192 43.1382 19.074 42.0741V23.7935L16.9339 21.6381C14.8619 19.5508 14.7665 19.4826 14.4393 19.6327C14.2349 19.7282 13.9077 19.7691 13.6215 19.7145C13.158 19.6327 13.1171 19.6463 11.6313 21.297C10.7998 22.2247 9.75017 23.3979 9.31397 23.93C8.86413 24.4484 8.00536 25.4988 7.40558 26.2491C6.8058 26.9995 5.76982 28.35 5.10189 29.2504C4.42032 30.1508 3.1935 31.897 2.37562 33.1385C1.54411 34.3799 0.712603 35.6486 0.535396 35.976C0.344557 36.2898 0.126456 36.5763 0.0582995 36.6036C-0.0234884 36.6309 -0.0234884 36.1534 0.0855621 35.2666C0.180981 34.5163 0.385451 33.2067 0.549027 32.3881C0.712603 31.556 1.08065 30.1235 1.38054 29.1822C1.6668 28.2409 2.13026 26.9176 2.40289 26.2491C2.66188 25.567 3.35708 24.1073 3.92959 22.975C4.50211 21.8563 5.44267 20.192 6.04245 19.2916C6.6286 18.3912 7.501 17.1498 8.8505 15.4036L8.59151 15.0898C8.44156 14.9261 8.25072 14.5987 8.16894 14.3804C8.07352 14.0939 8.05989 13.8347 8.16894 13.5209C8.29162 13.1117 8.26436 13.0435 7.69184 12.4023C7.22837 11.8839 7.07843 11.611 7.07843 11.27C7.07843 10.888 7.32379 10.5879 8.91866 8.99173C10.5544 7.35466 10.7998 7.16367 11.2224 7.15002C11.6177 7.15002 11.8221 7.2728 12.3538 7.79121C12.8445 8.28233 13.0626 8.40511 13.2125 8.30961C13.3216 8.2414 13.6487 8.17319 13.9214 8.17319C14.303 8.17319 14.562 8.28233 15.3254 8.9508L16.1433 8.28233C16.5931 7.91399 17.7245 7.09546 18.6651 6.46791C19.6056 5.84037 21.0369 4.96727 21.8684 4.50343C22.6863 4.05324 24.1312 3.34384 25.0718 2.93458C26.0123 2.53895 27.5118 1.95234 28.4114 1.65221C29.3111 1.35208 30.756 0.942812 31.6148 0.751821C32.4736 0.56083 33.8231 0.31527 34.6137 0.206132C35.4043 0.096994 36.1268 0.0151407 36.2086 0.00149848H36.2222ZM25.8351 3.52119C24.9355 3.91682 23.5314 4.59893 22.6999 5.04912C21.8684 5.51296 20.5871 6.27692 19.8373 6.76804C19.0876 7.25916 17.9017 8.10498 17.2065 8.63703L15.9388 9.60563C16.7703 10.4242 16.8793 10.4651 17.0566 10.315C17.1792 10.2332 17.9835 9.60562 18.8286 8.93716C19.6874 8.26869 21.2414 7.16367 22.291 6.46791C23.3406 5.77216 24.8128 4.87177 25.5625 4.44886C26.3122 4.0396 27.5118 3.4257 28.2206 3.09828C28.9294 2.75723 29.7201 2.40253 29.9654 2.29339C30.2108 2.18425 30.4153 2.06147 30.4016 1.99326C30.4016 1.93869 30.3198 1.89777 30.2244 1.91141C30.1426 1.91141 29.4747 2.11604 28.7659 2.3616C28.057 2.62081 26.7348 3.13921 25.8351 3.52119V3.52119ZM47.7407 2.29339C47.986 2.40253 48.7766 2.75723 49.4855 3.09828C50.1943 3.4257 51.3939 4.0396 52.1436 4.44886C52.8933 4.87177 54.1201 5.60845 54.8698 6.09957C55.6196 6.57705 56.8736 7.45015 57.6643 8.00948C58.4549 8.58246 59.4909 9.38735 59.9816 9.79662L60.8676 10.5197L61.7809 9.60563C59.8044 8.10498 58.6185 7.25916 57.8687 6.76804C57.119 6.27692 55.8377 5.51296 55.0062 5.04912C54.1746 4.59893 52.7706 3.91682 51.871 3.52119C50.9713 3.13921 49.6218 2.60716 48.8721 2.3616C48.1223 2.1024 47.468 1.89777 47.4135 1.89777C47.3454 1.89777 47.3045 1.93869 47.3045 1.99326C47.2908 2.06147 47.4953 2.18425 47.7407 2.29339V2.29339ZM7.90994 11.1336C7.90994 11.27 7.9781 11.4883 8.07352 11.6247C8.23709 11.8429 8.42793 11.6929 10.0092 10.124C11.0588 9.07358 11.7267 8.30961 11.6722 8.20048C11.6313 8.11862 11.3996 8.03677 11.1678 8.03677C10.827 8.03677 10.5272 8.26869 9.34123 9.45556C8.56424 10.2468 7.92357 10.9971 7.90994 11.1336ZM67.6969 10.124C69.2781 11.6929 69.469 11.8429 69.6326 11.6247C69.728 11.4883 69.7961 11.27 69.7961 11.1336C69.7961 11.0108 69.1555 10.2605 68.3649 9.4692C67.1926 8.29597 66.8654 8.03677 66.5246 8.03677C66.3065 8.03677 66.0884 8.11862 66.0339 8.20048C65.9794 8.30961 66.6064 9.03265 67.6969 10.124V10.124ZM9.16402 13.9711L9.13676 14.5168C13.1171 10.5742 13.3761 10.3559 13.785 10.3559C14.194 10.3559 14.4802 10.5879 16.3614 12.4705C17.52 13.6437 18.5151 14.5441 18.5833 14.4895C18.6378 14.4213 18.6787 14.1621 18.6787 13.9029C18.6787 13.4664 18.4742 13.2208 16.5249 11.2836C14.5893 9.33278 14.3439 9.12815 13.9077 9.12815C13.4852 9.12815 13.2534 9.31914 11.3178 11.2836C9.35486 13.2754 9.19128 13.48 9.16402 13.9711ZM59.0547 13.9029C59.041 14.1621 59.0683 14.4213 59.1228 14.4895C59.191 14.5441 60.1861 13.6437 61.3584 12.4705C63.2667 10.5742 63.5394 10.3559 63.9483 10.3559C64.3572 10.3559 64.6435 10.5879 66.4974 12.4432L68.5693 14.5168C68.5693 13.4527 68.4739 13.33 66.4156 11.2836C64.4799 9.33278 64.2346 9.12815 63.7984 9.12815C63.3758 9.12815 63.1441 9.31914 61.2084 11.2836C59.3682 13.1526 59.0819 13.4937 59.0547 13.9029V13.9029ZM26.5849 17.4226C23.845 19.0051 21.3777 20.4512 21.0914 20.6422L20.5871 20.9969L20.5734 41.9377C21.0642 42.3879 23.4769 43.8203 26.2441 45.4301C29.0112 47.0262 32.9098 49.2772 34.9 50.4232C36.931 51.5964 38.6622 52.5104 38.853 52.5104C39.0439 52.5104 40.8023 51.5827 42.8743 50.3822C44.9053 49.209 47.3862 47.7766 48.395 47.19C49.4037 46.6033 51.7346 45.2528 53.5749 44.1887C55.4151 43.1246 56.9554 42.1833 57.01 42.1014C57.0645 42.0059 57.119 37.2311 57.119 31.4605V20.9969C56.3284 20.4512 53.8611 19.0051 51.1212 17.4226C48.3813 15.8401 44.5509 13.6437 42.6017 12.5251C40.6524 11.4064 38.9621 10.4924 38.853 10.4924C38.7304 10.4924 37.0537 11.4064 35.1044 12.5251C33.1551 13.6437 29.3247 15.8401 26.5849 17.4226V17.4226ZM6.39686 20.383C5.9334 21.1333 5.15641 22.4839 4.69295 23.3843C4.21585 24.2847 3.53429 25.758 3.16624 26.6584C2.7982 27.5588 2.36199 28.7184 2.19842 29.2504C2.02121 29.7688 1.92579 30.2327 1.96668 30.2736C2.00758 30.3145 2.07574 30.3145 2.08937 30.2736C2.11663 30.2327 2.60736 29.2504 3.16624 28.0908C3.72512 26.9312 4.66569 25.1714 5.2382 24.2028C5.82435 23.2206 6.71038 21.8427 7.20111 21.1333C7.70547 20.4239 8.61877 19.2097 9.23218 18.4321C9.85922 17.6682 10.3636 16.9997 10.3636 16.9315C10.3636 16.8769 10.2 16.6723 9.99553 16.4677C9.77743 16.263 9.57296 16.0857 9.53207 16.0857C9.47754 16.0857 8.95955 16.7405 8.34614 17.5454C7.74636 18.3639 6.87396 19.6327 6.39686 20.383V20.383ZM67.3152 16.9451C67.3289 16.9997 67.8469 17.6682 68.4739 18.4321C69.0873 19.2097 70.0006 20.4239 70.505 21.1333C70.9957 21.8427 71.8817 23.2206 72.4679 24.2028C73.0404 25.1714 73.981 26.9312 74.5398 28.0908C75.0987 29.2504 75.5894 30.2327 75.6167 30.2736C75.6303 30.3145 75.6985 30.3145 75.7394 30.2736C75.7803 30.2327 75.644 29.687 75.4395 29.0458C75.235 28.4046 74.7988 27.245 74.4717 26.4538C74.1445 25.6625 73.4902 24.2847 73.0131 23.3843C72.5497 22.4839 71.7727 21.1333 71.3092 20.383C70.8321 19.6327 69.9461 18.3503 69.3327 17.5454C68.7329 16.7405 68.1876 16.072 68.1467 16.0857C68.1059 16.0857 67.9014 16.263 67.6833 16.4677C67.4652 16.6723 67.3016 16.8906 67.3152 16.9451V16.9451ZM19.3739 54.9251C19.2921 55.1024 19.2239 55.348 19.2239 55.4844C19.2239 55.6072 19.8919 56.3712 20.7234 57.1897C21.6639 58.1037 22.3046 58.6221 22.4273 58.5812C22.5363 58.5403 22.7136 58.513 22.7953 58.513C22.8908 58.513 22.3455 57.8855 21.5822 57.1215C20.4235 55.9619 20.1781 55.6481 20.1781 55.3071C20.1781 54.9524 20.6825 54.4067 23.7632 51.3099C26.5985 48.4587 27.2937 47.6947 27.1301 47.5992C27.0211 47.531 26.8575 47.4628 26.7893 47.4628C26.7075 47.4628 25.0445 49.0726 23.0816 51.0507C21.1323 53.0152 19.4557 54.7614 19.3739 54.9387V54.9251ZM53.9429 51.2963C57.0236 54.3794 57.5279 54.9387 57.5279 55.2934C57.5279 55.6345 57.2962 55.9346 56.233 56.9987C55.5241 57.7081 54.938 58.3357 54.938 58.4039C54.938 58.4584 55.1016 58.4994 55.306 58.4994C55.6059 58.4994 55.9876 58.1992 57.0781 57.1079C57.9096 56.262 58.4821 55.5936 58.4821 55.4299C58.4821 55.2798 58.3867 55.0069 58.264 54.816C58.1414 54.625 56.4647 52.8924 54.5427 50.9552C52.6207 49.0317 50.9985 47.4492 50.9168 47.4492C50.835 47.4492 50.685 47.5174 50.576 47.5856C50.4124 47.6811 51.1076 48.445 53.9429 51.2963V51.2963Z" fill="white"/>
<path d="M22.3726 21.8428C22.618 21.4881 24.4309 20.3831 30.456 16.9043C37.5034 12.8253 38.2804 12.416 38.8392 12.416C39.3845 12.416 39.848 12.6343 42.9286 14.4351C44.837 15.5401 48.3675 17.5728 50.753 18.9643C53.9836 20.8333 55.1696 21.5836 55.3604 21.8837C55.5921 22.2657 55.6058 22.8387 55.6058 40.9146L55.2922 41.283C55.115 41.5012 54.1745 42.1151 53.2067 42.6745C52.2388 43.2338 48.7492 45.2528 45.4504 47.1764C40.0388 50.3141 39.3981 50.6415 38.8392 50.6415C38.2804 50.6415 37.6533 50.3141 32.228 47.1628C28.9293 45.2528 25.4397 43.2338 24.4718 42.6745C23.504 42.1151 22.5634 41.5012 22.0727 40.9146L22.0591 22.293L22.3726 21.8428Z" fill="white"/>
<path d="M26.1985 39.8257L35.3015 19.0018H42.2031L51.3061 39.8257H44.0475L37.3244 22.3336H40.0612L33.3381 39.8257H26.1985ZM31.6127 36.1964L33.3976 31.1392H42.9765L44.7614 36.1964H31.6127Z" fill="black"/>
<path d="M26.1985 39.8257L35.3015 19.0018H42.2031L51.3061 39.8257H44.0475L37.3244 22.3336H40.0612L33.3381 39.8257H26.1985ZM31.6127 36.1964L33.3976 31.1392H42.9765L44.7614 36.1964H31.6127Z" fill="url(#paint0_linear_202_136)"/>
<path d="M26.1985 39.8257L35.3015 19.0018H42.2031L51.3061 39.8257H44.0475L37.3244 22.3336H40.0612L33.3381 39.8257H26.1985ZM31.6127 36.1964L33.3976 31.1392H42.9765L44.7614 36.1964H31.6127Z" fill="url(#paint1_linear_202_136)"/>
<defs>
<linearGradient id="paint0_linear_202_136" x1="38.7637" y1="10.8257" x2="38.7637" y2="46.8257" gradientUnits="userSpaceOnUse">
<stop stop-color="#2040AE"/>
<stop offset="1" stop-color="#B12A97"/>
</linearGradient>
<linearGradient id="paint1_linear_202_136" x1="38.7637" y1="10.8257" x2="38.7637" y2="46.8257" gradientUnits="userSpaceOnUse">
<stop stop-color="#F8DE56"/>
<stop offset="1" stop-color="#FBAC0B"/>
</linearGradient>
</defs>
</svg>
