<svg width="18" height="68" viewBox="0 0 18 68" fill="none" xmlns="http://www.w3.org/2000/svg">
<g clip-path="url(#clip0_204_569)">
<path d="M8 2.968L10.04 2.968L10.04 4.552L8 4.552L8 2.968ZM8 15.6946L10.04 15.6946L10.04 17.2786L8 17.2786L8 15.6946ZM8 28.4211L10.04 28.4211L10.04 30.0051L8 30.0051L8 28.4211Z" fill="white"/>
<path d="M9 52.75V64.625" stroke="white" stroke-width="1.25"/>
<path d="M4.625 60.875L9 65.25L13.375 60.875" stroke="white" stroke-width="1.25" stroke-linejoin="round"/>
<path d="M12.125 56.875C13.2681 55.9745 14 54.5907 14 53.0389C14 50.325 11.7614 48.125 9 48.125C6.23858 48.125 4 50.325 4 53.0389C4 54.5907 4.73192 55.9745 5.875 56.875" stroke="white" stroke-width="1.25" stroke-linejoin="round"/>
</g>
<defs>
<clipPath id="clip0_204_569">
<rect width="18" height="68" fill="white"/>
</clipPath>
</defs>
</svg>
