<svg width="32" height="32" viewBox="0 0 32 32" fill="none" xmlns="http://www.w3.org/2000/svg">
<path fill-rule="evenodd" clip-rule="evenodd" d="M16 0C21.2784 0 21.5835 0.00824954 21.8144 0.148492C21.9464 0.230987 22.1278 0.437226 22.2103 0.602217C22.3258 0.857953 22.3505 1.14669 22.3505 4.36401H26.7876C31.068 4.36401 31.2247 4.37226 31.4887 4.529C31.6289 4.61975 31.8103 4.82599 31.8763 4.98273C31.9835 5.23846 32 6.67388 32 16.2434C32 25.6891 31.9835 27.306 31.8763 27.8587C31.8103 28.2052 31.6454 28.7167 31.5134 28.9889C31.3897 29.2611 31.1093 29.7149 30.8948 29.9954C30.6887 30.2841 30.2845 30.6883 30.0041 30.8946C29.7155 31.1008 29.3113 31.3648 29.0969 31.472C28.8742 31.5793 28.4206 31.7443 28.0825 31.835C27.4804 31.9918 27.2082 32 10.433 32L10.1691 31.8103C10.0206 31.7113 9.83918 31.505 9.7732 31.3565C9.67423 31.1503 9.64949 30.7296 9.64949 27.6277H5.27835C1.2866 27.6277 0.882474 27.6112 0.610309 27.4792C0.445361 27.405 0.239175 27.2235 0.156701 27.0915C0.00824742 26.8523 0.00824742 26.4811 0 18.6522C0 11.6979 0.0164948 10.4357 0.115464 10.2377C0.181443 10.1139 2.45773 7.80407 5.17113 5.09822C7.88454 2.39237 10.1773 0.131993 10.268 0.0824955C10.3835 0.0247486 12.1567 0 16 0V0ZM11.7938 6.52539C11.7938 10.6832 11.7856 10.9389 11.6371 11.2111C11.5546 11.3679 11.3567 11.5659 11.2082 11.6484C10.9526 11.7804 10.5649 11.7886 6.54021 11.7886H2.14433V25.4829L18.0206 25.4416C18.7217 25.1034 19.1093 24.8229 19.3237 24.6002C19.5464 24.3857 19.8268 23.9979 19.9423 23.7505L20.1649 23.2967L20.2062 2.13663H11.7938V6.52539ZM3.6701 9.64372L9.64949 9.63547C9.64949 5.03223 9.64124 3.6958 9.62474 3.6958C9.6165 3.6958 8.27217 5.04047 6.63918 6.67389L3.6701 9.64372ZM22.3505 14.9152C26.499 14.9152 26.7959 14.9399 27.0351 15.0637C27.1918 15.1462 27.3897 15.3359 27.4722 15.4927C27.5546 15.6576 27.6289 15.8804 27.6289 15.9876C27.6289 16.1031 27.5629 16.3259 27.4804 16.4743C27.4062 16.6311 27.2082 16.8208 27.0515 16.9116C26.7876 17.0518 26.565 17.0683 24.5526 17.0683L22.3505 17.0601V20.1949C26.8124 20.1949 26.8454 20.1949 27.134 20.3846C27.3155 20.5084 27.4639 20.6981 27.5381 20.9044C27.6041 21.0858 27.6289 21.3333 27.5959 21.4571C27.5711 21.5808 27.4557 21.7953 27.3402 21.9273C27.2247 22.0675 26.9938 22.216 26.8206 22.2573C26.6557 22.3068 25.5835 22.3398 24.4536 22.3398H22.3918C22.2845 23.272 22.1856 23.7422 22.1113 23.9897C22.0371 24.2454 21.8227 24.7074 21.6495 25.0209C21.468 25.3509 21.0887 25.8376 20.7835 26.1346C20.4619 26.4563 20.0082 26.8028 19.6701 26.976C19.3485 27.141 18.8866 27.3473 18.6392 27.4215C18.2433 27.5535 17.7897 27.5782 14.9856 27.5947L11.7938 27.6195V29.8469L27.6701 29.8056C28.3711 29.4674 28.7588 29.1869 28.9732 28.9724C29.1876 28.7497 29.468 28.3702 29.5918 28.1145L29.8144 27.6607L29.8557 6.41815H22.3505V14.9152Z" fill="white"/>
<path d="M4.46176 20.9043C4.53599 20.7063 4.68444 20.5083 4.85764 20.3929L5.1463 20.2031L16.2886 20.1949L16.5772 20.3929C16.7587 20.5083 16.9071 20.6981 16.9813 20.9043C17.0473 21.0941 17.0721 21.3333 17.0473 21.457C17.0143 21.589 16.8989 21.8035 16.7834 21.9355C16.6679 22.0758 16.437 22.216 16.2721 22.2655C16.0824 22.315 13.9298 22.348 10.7216 22.348C7.51331 22.348 5.36073 22.315 5.17104 22.2655C5.00609 22.216 4.77516 22.0758 4.6597 21.9355C4.54424 21.8035 4.42877 21.589 4.39578 21.457C4.37104 21.3333 4.39578 21.0941 4.46176 20.9043Z" fill="white"/>
<path d="M4.51949 15.5009C4.61022 15.3441 4.79991 15.1461 4.95661 15.0719C5.21228 14.9317 5.64939 14.9234 10.7133 14.9234C15.7855 14.9234 16.2226 14.9317 16.4783 15.0719C16.6267 15.1461 16.8246 15.3441 16.9071 15.5009C16.9978 15.6576 17.0638 15.8803 17.0638 15.9958C17.0638 16.1113 16.9978 16.3258 16.9236 16.4826C16.8411 16.6311 16.6515 16.829 16.4865 16.9115C16.2143 17.06 15.9422 17.0683 10.7133 17.0683C5.64939 17.0683 5.21228 17.06 4.95661 16.928C4.79991 16.8455 4.61022 16.6476 4.51949 16.4908C4.43702 16.3341 4.36279 16.1113 4.36279 15.9958C4.36279 15.8803 4.43702 15.6576 4.51949 15.5009Z" fill="white"/>
</svg>
