<svg width="78" height="60" viewBox="0 0 78 60" fill="none" xmlns="http://www.w3.org/2000/svg">
<path fill-rule="evenodd" clip-rule="evenodd" d="M36.3731 0.00149848C36.4553 -0.0121437 36.5374 0.0697096 36.5374 0.151563C36.5374 0.247059 36.2773 0.478976 35.9488 0.656325C35.634 0.833674 34.361 1.65221 33.1154 2.48438C31.8697 3.30292 29.9945 4.62621 28.9405 5.41746C27.8865 6.20871 26.2165 7.51836 25.2447 8.30961C24.2591 9.1145 22.5892 10.5469 21.5078 11.4883C19.6736 13.1253 19.5641 13.2345 19.6736 13.5892C19.7421 13.8074 19.7421 14.1894 19.6736 14.4486C19.5504 14.9261 19.5504 14.9261 22.6439 18.0365L25.6553 16.3176C27.3116 15.3899 30.761 13.4118 33.3207 11.9384C35.8804 10.4514 38.2073 9.19636 38.4811 9.1145C38.8096 9.03265 39.1929 9.04629 39.5077 9.12815C39.7952 9.19636 42.0948 10.4378 44.6134 11.8975C47.132 13.3436 50.5814 15.3217 55.3585 18.0365L56.9053 16.4813C58.4521 14.9261 58.4521 14.9261 58.3289 14.4486C58.2604 14.1894 58.2604 13.8074 58.3289 13.5892C58.4384 13.2481 58.3426 13.139 56.7547 11.7338C55.8376 10.9289 54.6605 9.89211 54.1266 9.44192C53.5928 9.00537 52.5525 8.14591 51.7996 7.54565C51.0468 6.93175 49.6643 5.86766 48.7198 5.15826C47.7753 4.46251 46.0232 3.23471 44.8187 2.42981C43.6141 1.63857 42.3685 0.833674 42.0537 0.656325C41.7252 0.478976 41.4651 0.247059 41.4651 0.151563C41.4651 0.0424251 41.6294 0.00149848 41.9716 0.0560674C42.259 0.0833518 43.1624 0.219774 43.9974 0.342554C44.8187 0.465334 46.2423 0.738179 47.1457 0.970096C48.0491 1.20201 49.6232 1.69313 50.6361 2.06147C51.6491 2.44346 53.1 3.04371 53.8529 3.38477C54.6057 3.73947 55.8787 4.40794 56.6863 4.87177C57.5076 5.33561 58.7669 6.12686 59.4924 6.61798C60.2315 7.12274 61.2307 7.84578 62.6132 8.96444L63.0513 8.56882C63.3661 8.29597 63.6535 8.17319 63.9821 8.17319C64.2421 8.17319 64.5707 8.22776 64.6938 8.30961C64.8855 8.40511 65.036 8.3369 65.4193 7.95492C65.6794 7.68207 66.0627 7.38194 66.268 7.2728C66.487 7.16367 66.7881 7.1091 66.9524 7.15002C67.1303 7.19095 68.0885 8.03677 69.074 9.03265C70.6482 10.6015 70.8809 10.888 70.8946 11.27C70.8946 11.611 70.744 11.8839 70.2786 12.4023C69.7037 13.0435 69.6763 13.1117 69.7995 13.5209C69.909 13.8347 69.8953 14.0939 69.7995 14.3804C69.7174 14.6123 69.5258 14.9261 69.1151 15.4036L69.9912 16.5359C70.4702 17.1498 71.36 18.4185 71.9896 19.3598C72.6056 20.3011 73.6459 22.1701 74.3166 23.5207C75.0147 24.9122 75.8223 26.8221 76.2056 27.9544C76.5751 29.0458 77.0405 30.601 77.2322 31.4332C77.4238 32.2654 77.6839 33.575 77.7934 34.3663C77.9166 35.1575 78.0124 35.9897 77.9987 36.6172L77.7249 36.2762C77.5744 36.0852 76.8489 35.0074 76.1097 33.8888C75.3843 32.7565 74.3577 31.2558 73.8375 30.5464C73.331 29.837 72.2771 28.4592 71.5242 27.4769C70.7714 26.4947 69.6353 25.0895 68.9919 24.3392C68.3623 23.5889 67.1714 22.2247 66.3227 21.297C64.8307 19.6599 64.7897 19.6327 64.3243 19.7145C64.0368 19.7691 63.7083 19.7282 63.503 19.6327C63.1745 19.4826 63.0786 19.5508 58.849 23.7935V42.0741L58.5479 42.688C58.3152 43.1519 58.0277 43.4247 57.4118 43.793C56.9601 44.0659 55.5502 44.8844 54.2635 45.6075C52.9768 46.3441 51.9091 46.9717 51.8681 46.999C51.827 47.0399 53.6612 48.9089 55.9334 51.1871C59.7798 55.007 60.0809 55.348 60.0809 55.7846C60.0809 56.2211 59.903 56.4394 58.192 58.131C56.6179 59.6999 56.2483 60 55.9061 60C55.5502 60 54.8795 59.3861 45.9137 50.4368L42.9708 52.1148C41.3556 53.0425 39.7952 53.861 39.5214 53.9429C39.1655 54.0383 38.837 54.0383 38.4948 53.9429C38.2073 53.861 36.6606 53.0288 32.1435 50.3959L27.3253 55.1979C23.123 59.3861 22.4523 60 22.0964 60C21.7542 60 21.3846 59.6999 19.8105 58.131C18.0995 56.4394 17.9215 56.2211 17.9215 55.7846C17.9215 55.348 18.2227 55.007 22.069 51.1871C24.3413 48.9089 26.1755 47.0399 26.1344 46.999C26.0933 46.9717 25.012 46.3441 23.739 45.6075C22.4523 44.8844 21.0424 44.0659 20.6044 43.793C20.0021 43.4247 19.701 43.1382 19.1535 42.0741V23.7935L17.0044 21.6381C14.9238 19.5508 14.828 19.4826 14.4995 19.6327C14.2942 19.7282 13.9657 19.7691 13.6782 19.7145C13.2128 19.6327 13.1718 19.6463 11.6798 21.297C10.8448 22.2247 9.7908 23.3979 9.35278 23.93C8.90107 24.4484 8.03872 25.4988 7.43644 26.2491C6.83416 26.9995 5.79386 28.35 5.12315 29.2504C4.43874 30.1508 3.20681 31.897 2.38552 33.1385C1.55055 34.3799 0.715572 35.6486 0.537627 35.976C0.345993 36.2898 0.126983 36.5763 0.0585424 36.6036C-0.0235863 36.6309 -0.0235863 36.1534 0.0859187 35.2666C0.181735 34.5163 0.387057 33.2067 0.551315 32.3881C0.715572 31.556 1.08515 30.1235 1.38629 29.1822C1.67374 28.2409 2.13914 26.9176 2.4129 26.2491C2.67297 25.567 3.37107 24.1073 3.94597 22.975C4.52087 21.8563 5.46535 20.192 6.06763 19.2916C6.65622 18.3912 7.53226 17.1498 8.88738 15.4036L8.62731 15.0898C8.47674 14.9261 8.2851 14.5987 8.20297 14.3804C8.10716 14.0939 8.09347 13.8347 8.20297 13.5209C8.32617 13.1117 8.29879 13.0435 7.72389 12.4023C7.25849 11.8839 7.10792 11.611 7.10792 11.27C7.10792 10.888 7.35431 10.5879 8.95582 8.99173C10.5984 7.35466 10.8448 7.16367 11.2691 7.15002C11.6661 7.15002 11.8714 7.2728 12.4052 7.79121C12.898 8.28233 13.117 8.40511 13.2676 8.30961C13.3771 8.2414 13.7056 8.17319 13.9794 8.17319C14.3626 8.17319 14.6227 8.28233 15.3892 8.9508L16.2105 8.28233C16.6622 7.91399 17.7983 7.09546 18.7428 6.46791C19.6873 5.84037 21.1246 4.96727 21.9595 4.50343C22.7808 4.05324 24.2318 3.34384 25.1762 2.93458C26.1207 2.53895 27.6264 1.95234 28.5298 1.65221C29.4332 1.35208 30.8842 0.942812 31.7465 0.751821C32.6089 0.56083 33.964 0.31527 34.7579 0.206132C35.5518 0.096994 36.2773 0.0151407 36.3594 0.00149848H36.3731ZM25.9428 3.52119C25.0394 3.91682 23.6295 4.59893 22.7945 5.04912C21.9595 5.51296 20.6729 6.27692 19.92 6.76804C19.1672 7.25916 17.9763 8.10498 17.2782 8.63703L16.0052 9.60563C16.8402 10.4242 16.9497 10.4651 17.1276 10.315C17.2508 10.2332 18.0584 9.60562 18.9071 8.93716C19.7694 8.26869 21.3299 7.16367 22.3839 6.46791C23.4379 5.77216 24.9162 4.87177 25.669 4.44886C26.4219 4.0396 27.6264 3.4257 28.3382 3.09828C29.05 2.75723 29.8439 2.40253 30.0903 2.29339C30.3367 2.18425 30.542 2.06147 30.5283 1.99326C30.5283 1.93869 30.4462 1.89777 30.3504 1.91141C30.2682 1.91141 29.5975 2.11604 28.8857 2.3616C28.1739 2.62081 26.8462 3.13921 25.9428 3.52119V3.52119ZM47.9396 2.29339C48.186 2.40253 48.9799 2.75723 49.6917 3.09828C50.4034 3.4257 51.608 4.0396 52.3608 4.44886C53.1137 4.87177 54.3456 5.60845 55.0985 6.09957C55.8513 6.57705 57.1106 7.45015 57.9045 8.00948C58.6984 8.58246 59.7387 9.38735 60.2315 9.79662L61.1212 10.5197L62.0384 9.60563C60.0536 8.10498 58.8627 7.25916 58.1099 6.76804C57.357 6.27692 56.0703 5.51296 55.2354 5.04912C54.4004 4.59893 52.9905 3.91682 52.0871 3.52119C51.1837 3.13921 49.8285 2.60716 49.0757 2.3616C48.3229 2.1024 47.6658 1.89777 47.6111 1.89777C47.5426 1.89777 47.5016 1.93869 47.5016 1.99326C47.4879 2.06147 47.6932 2.18425 47.9396 2.29339V2.29339ZM7.9429 11.1336C7.9429 11.27 8.01134 11.4883 8.10716 11.6247C8.27141 11.8429 8.46305 11.6929 10.0509 10.124C11.1049 9.07358 11.7756 8.30961 11.7208 8.20048C11.6798 8.11862 11.4471 8.03677 11.2144 8.03677C10.8722 8.03677 10.571 8.26869 9.38015 9.45556C8.59993 10.2468 7.95659 10.9971 7.9429 11.1336ZM67.979 10.124C69.5668 11.6929 69.7585 11.8429 69.9227 11.6247C70.0185 11.4883 70.087 11.27 70.087 11.1336C70.087 11.0108 69.4436 10.2605 68.6497 9.4692C67.4725 8.29597 67.144 8.03677 66.8018 8.03677C66.5828 8.03677 66.3638 8.11862 66.309 8.20048C66.2543 8.30961 66.8839 9.03265 67.979 10.124V10.124ZM9.20221 13.9711L9.17483 14.5168C13.1718 10.5742 13.4318 10.3559 13.8425 10.3559C14.2531 10.3559 14.5406 10.5879 16.4295 12.4705C17.593 13.6437 18.5923 14.5441 18.6607 14.4895C18.7154 14.4213 18.7565 14.1621 18.7565 13.9029C18.7565 13.4664 18.5512 13.2208 16.5938 11.2836C14.6501 9.33278 14.4037 9.12815 13.9657 9.12815C13.5413 9.12815 13.3086 9.31914 11.3649 11.2836C9.39384 13.2754 9.22958 13.48 9.20221 13.9711ZM59.3007 13.9029C59.287 14.1621 59.3144 14.4213 59.3692 14.4895C59.4376 14.5441 60.4368 13.6437 61.614 12.4705C63.5304 10.5742 63.8041 10.3559 64.2148 10.3559C64.6254 10.3559 64.9129 10.5879 66.7744 12.4432L68.855 14.5168C68.855 13.4527 68.7592 13.33 66.6923 11.2836C64.7486 9.33278 64.5022 9.12815 64.0642 9.12815C63.6399 9.12815 63.4072 9.31914 61.4634 11.2836C59.6156 13.1526 59.3281 13.4937 59.3007 13.9029V13.9029ZM26.6956 17.4226C23.9443 19.0051 21.4668 20.4512 21.1793 20.6422L20.6729 20.9969L20.6592 41.9377C21.1519 42.3879 23.5747 43.8203 26.3534 45.4301C29.1321 47.0262 33.0469 49.2772 35.0454 50.4232C37.0849 51.5964 38.8233 52.5104 39.0149 52.5104C39.2066 52.5104 40.9723 51.5827 43.0529 50.3822C45.0925 49.209 47.5837 47.7766 48.5966 47.19C49.6095 46.6033 51.9502 45.2528 53.7981 44.1887C55.646 43.1246 57.1928 42.1833 57.2475 42.1014C57.3023 42.0059 57.357 37.2311 57.357 31.4605V20.9969C56.5631 20.4512 54.0856 19.0051 51.3342 17.4226C48.5829 15.8401 44.7366 13.6437 42.7792 12.5251C40.8218 11.4064 39.1244 10.4924 39.0149 10.4924C38.8917 10.4924 37.2081 11.4064 35.2507 12.5251C33.2933 13.6437 29.4469 15.8401 26.6956 17.4226V17.4226ZM6.42352 20.383C5.95812 21.1333 5.1779 22.4839 4.7125 23.3843C4.23342 24.2847 3.54901 25.758 3.17943 26.6584C2.80985 27.5588 2.37183 28.7184 2.20758 29.2504C2.02963 29.7688 1.93381 30.2327 1.97488 30.2736C2.01594 30.3145 2.08438 30.3145 2.09807 30.2736C2.12545 30.2327 2.61822 29.2504 3.17943 28.0908C3.74065 26.9312 4.68513 25.1714 5.26003 24.2028C5.84862 23.2206 6.73834 21.8427 7.23112 21.1333C7.73758 20.4239 8.65468 19.2097 9.27065 18.4321C9.9003 17.6682 10.4068 16.9997 10.4068 16.9315C10.4068 16.8769 10.2425 16.6723 10.0372 16.4677C9.81817 16.263 9.61285 16.0857 9.57179 16.0857C9.51703 16.0857 8.99688 16.7405 8.38092 17.5454C7.77864 18.3639 6.9026 19.6327 6.42352 20.383V20.383ZM67.5957 16.9451C67.6094 16.9997 68.1296 17.6682 68.7592 18.4321C69.3752 19.2097 70.2923 20.4239 70.7987 21.1333C71.2915 21.8427 72.1812 23.2206 72.7698 24.2028C73.3447 25.1714 74.2892 26.9312 74.8504 28.0908C75.4116 29.2504 75.9044 30.2327 75.9318 30.2736C75.9455 30.3145 76.0139 30.3145 76.055 30.2736C76.0961 30.2327 75.9592 29.687 75.7538 29.0458C75.5485 28.4046 75.1105 27.245 74.782 26.4538C74.4535 25.6625 73.7964 24.2847 73.3174 23.3843C72.852 22.4839 72.0717 21.1333 71.6063 20.383C71.1273 19.6327 70.2375 18.3503 69.6216 17.5454C69.0193 16.7405 68.4718 16.072 68.4307 16.0857C68.3896 16.0857 68.1843 16.263 67.9653 16.4677C67.7463 16.6723 67.582 16.8906 67.5957 16.9451V16.9451ZM19.4546 54.9251C19.3725 55.1024 19.304 55.348 19.304 55.4844C19.304 55.6072 19.9748 56.3712 20.8097 57.1897C21.7542 58.1037 22.3976 58.6221 22.5207 58.5812C22.6303 58.5403 22.8082 58.513 22.8903 58.513C22.9861 58.513 22.4386 57.8855 21.6721 57.1215C20.5086 55.9619 20.2622 55.6481 20.2622 55.3071C20.2622 54.9524 20.7687 54.4067 23.8622 51.3099C26.7093 48.4587 27.4074 47.6947 27.2432 47.5992C27.1336 47.531 26.9694 47.4628 26.9009 47.4628C26.8188 47.4628 25.1489 49.0726 23.1778 51.0507C21.2204 53.0152 19.5367 54.7614 19.4546 54.9387V54.9251ZM54.1677 51.2963C57.2612 54.3794 57.7677 54.9387 57.7677 55.2934C57.7677 55.6345 57.535 55.9346 56.4673 56.9987C55.7555 57.7081 55.1669 58.3357 55.1669 58.4039C55.1669 58.4584 55.3312 58.4994 55.5365 58.4994C55.8376 58.4994 56.2209 58.1992 57.3159 57.1079C58.1509 56.262 58.7258 55.5936 58.7258 55.4299C58.7258 55.2798 58.63 55.0069 58.5068 54.816C58.3836 54.625 56.7 52.8924 54.77 50.9552C52.8399 49.0317 51.211 47.4492 51.1289 47.4492C51.0468 47.4492 50.8962 47.5174 50.7867 47.5856C50.6225 47.6811 51.3206 48.445 54.1677 51.2963V51.2963Z" fill="white"/>
<path d="M22.9086 19.9268C23.155 19.5721 24.9755 18.4671 31.0256 14.9883C38.1024 10.9093 38.8826 10.5 39.4438 10.5C39.9914 10.5 40.4567 10.7183 43.5503 12.519C45.4666 13.6241 49.0118 15.6568 51.4072 17.0483C54.6513 18.9173 55.8422 19.6676 56.0338 19.9677C56.2665 20.3497 56.2802 20.9227 56.2802 38.9986L55.9654 39.3669C55.7874 39.5852 54.843 40.1991 53.8711 40.7585C52.8992 41.3178 49.3951 43.3368 46.0826 45.2604C40.6484 48.3981 40.005 48.7255 39.4438 48.7255C38.8826 48.7255 38.253 48.3981 32.8051 45.2467C29.4926 43.3368 25.9884 41.3178 25.0165 40.7585C24.0447 40.1991 23.1002 39.5852 22.6074 38.9986L22.5938 20.377L22.9086 19.9268Z" fill="white"/>
<path d="M26.4347 39L35.5383 18.175H42.4403L51.5438 39H44.2848L37.5613 21.507H40.2983L33.5748 39H26.4347ZM31.8493 35.3705L33.6343 30.313H43.2138L44.9988 35.3705H31.8493Z" fill="black"/>
<path d="M26.4347 39L35.5383 18.175H42.4403L51.5438 39H44.2848L37.5613 21.507H40.2983L33.5748 39H26.4347ZM31.8493 35.3705L33.6343 30.313H43.2138L44.9988 35.3705H31.8493Z" fill="url(#paint0_linear_204_546)"/>
<path d="M26.4347 39L35.5383 18.175H42.4403L51.5438 39H44.2848L37.5613 21.507H40.2983L33.5748 39H26.4347ZM31.8493 35.3705L33.6343 30.313H43.2138L44.9988 35.3705H31.8493Z" fill="url(#paint1_linear_204_546)"/>
<path d="M26.4347 39L35.5383 18.175H42.4403L51.5438 39H44.2848L37.5613 21.507H40.2983L33.5748 39H26.4347ZM31.8493 35.3705L33.6343 30.313H43.2138L44.9988 35.3705H31.8493Z" fill="url(#paint2_linear_204_546)"/>
<defs>
<linearGradient id="paint0_linear_204_546" x1="39.05" y1="10" x2="39.05" y2="46" gradientUnits="userSpaceOnUse">
<stop stop-color="#2040AE"/>
<stop offset="1" stop-color="#B12A97"/>
</linearGradient>
<linearGradient id="paint1_linear_204_546" x1="39.05" y1="10" x2="39.05" y2="46" gradientUnits="userSpaceOnUse">
<stop stop-color="#F8DE56"/>
<stop offset="1" stop-color="#FBAC0B"/>
</linearGradient>
<linearGradient id="paint2_linear_204_546" x1="39.05" y1="10" x2="39.05" y2="46" gradientUnits="userSpaceOnUse">
<stop stop-color="#2040AE"/>
<stop offset="1" stop-color="#B12A97"/>
</linearGradient>
</defs>
</svg>
