<svg width="32" height="27" viewBox="0 0 32 27" fill="none" xmlns="http://www.w3.org/2000/svg">
<path d="M2.19983 11.4166C10.7898 7.6741 16.5177 5.20682 19.3837 4.01475C27.5667 0.61116 29.2671 0.0199205 30.3753 0.000189272C30.6191 -0.00389646 31.1641 0.0565124 31.5171 0.342978C31.8152 0.584864 31.8973 0.911618 31.9365 1.14095C31.9758 1.37029 32.0246 1.89272 31.9858 2.30093C31.5423 6.96019 29.6236 18.267 28.6474 23.4854C28.2344 25.6936 27.4211 26.4339 26.6337 26.5064C24.9226 26.6638 23.6232 25.3755 21.9659 24.2891C19.3725 22.5891 17.9074 21.5309 15.3901 19.872C12.4808 17.9549 14.3668 16.9012 16.0247 15.1792C16.4586 14.7285 23.9979 7.87092 24.1439 7.24883C24.1621 7.17103 24.1791 6.88101 24.0068 6.72787C23.8345 6.57474 23.5802 6.62711 23.3967 6.66875C23.1366 6.72779 18.9936 9.46614 10.9678 14.8838C9.79182 15.6913 8.72666 16.0847 7.77232 16.0641C6.72023 16.0414 4.69644 15.4693 3.19196 14.9802C1.34666 14.3804 -0.119957 14.0632 0.0077523 13.0445C0.074271 12.5139 0.804965 11.9713 2.19983 11.4166Z" fill="white"/>
</svg>
