<svg width="27" height="34" viewBox="0 0 27 34" fill="none" xmlns="http://www.w3.org/2000/svg">
<path fill-rule="evenodd" clip-rule="evenodd" d="M0.251953 0.597534H27V5.05351H25.8855V9.50949H20.313L20.2956 21.4118L20.2224 21.5093C20.1806 21.5615 20.104 21.6381 20.0553 21.6764C19.9612 21.746 19.8985 21.746 16.9486 21.7565C15.2942 21.76 13.9394 21.7739 13.9394 21.7913C13.9394 21.8052 14.2424 22.5293 15.2977 24.9836L15.2803 33.6658L15.2072 33.7632C15.1654 33.8155 15.0888 33.8921 15.04 33.9303C14.946 34 14.8902 34 11.397 34C7.90371 34 7.84798 34 7.75394 33.9303C7.70518 33.8921 7.62856 33.8155 7.58677 33.7632C7.51711 33.6693 7.51363 33.6205 7.4788 31.2498L4.70996 23.5215V19.807C4.70996 16.6982 4.71693 16.0716 4.75872 15.9776C4.78658 15.9115 5.27418 15.3963 6.93896 13.7392V9.50949H1.36646V5.05351H0.251953L0.251953 0.597534ZM1.36646 3.93952H25.8855V1.71153H1.36646V3.93952ZM2.48096 8.3955H6.93896V7.2815H5.82446V6.16751H21.4275V7.2815H20.313V8.3955H24.771V5.05351H2.48096V8.3955ZM8.05347 20.6494H9.72522V19.5354H9.16797V16.1935H10.2825V17.1682C10.5646 16.9767 10.7352 16.8862 10.8397 16.8479C10.993 16.7888 11.1323 16.7713 11.5363 16.7574C11.8288 16.7505 12.1284 16.7609 12.2503 16.7818C12.3652 16.8027 12.5602 16.8688 12.6856 16.928C12.818 16.9907 12.9956 17.1195 13.114 17.2344C13.2463 17.3632 13.3578 17.5128 13.4379 17.673C13.5041 17.8088 13.5737 18.0037 13.5911 18.1081C13.612 18.2126 13.626 18.8288 13.626 19.4763V20.6494H19.1985V7.2815H18.084V15.0795H16.9695L16.973 9.66615C16.5237 10.0978 16.2625 10.3137 16.0988 10.4216C15.9351 10.5295 15.7017 10.6653 15.5764 10.7279C15.451 10.7906 15.1932 10.8915 15.0017 10.9577C14.8101 11.0203 14.4723 11.0969 14.2529 11.1317C13.9708 11.1735 13.7339 11.184 13.4518 11.17C13.2324 11.1596 12.9259 11.1248 12.7727 11.0935C12.6194 11.0621 12.3931 11.0064 12.2677 10.9646C12.1423 10.9264 11.8985 10.8254 11.7278 10.7488C11.5572 10.6687 11.289 10.5191 11.1358 10.4146C10.9825 10.3102 10.7283 10.1013 10.5681 9.94465L10.279 9.66615L10.2825 15.0795H9.16797V7.2815H8.05347V20.6494ZM10.373 7.49038C10.4009 7.60526 10.4671 7.82109 10.5263 7.97079C10.582 8.117 10.7213 8.38157 10.8328 8.55215C10.9512 8.7297 11.1601 8.98035 11.3134 9.12656C11.4666 9.27277 11.7209 9.4712 11.8846 9.57215C12.0483 9.67311 12.3095 9.80192 12.4697 9.85762C12.6264 9.9168 12.9016 9.98642 13.0792 10.0178C13.309 10.0595 13.5076 10.07 13.7827 10.056C13.9917 10.0421 14.2633 10.0108 14.3852 9.97946C14.5036 9.95161 14.7231 9.88198 14.8728 9.8228C15.0191 9.7671 15.2664 9.64178 15.4196 9.54082C15.5729 9.44335 15.8132 9.2484 15.956 9.11263C16.0953 8.97686 16.3043 8.72622 16.4157 8.55215C16.5306 8.38157 16.67 8.117 16.7257 7.97079C16.7849 7.82109 16.8545 7.60526 16.8824 7.49038L16.9347 7.2815H10.3243L10.373 7.49038ZM13.3857 13.4572C13.4518 13.4328 13.5563 13.412 13.619 13.4085C13.6817 13.4085 13.7827 13.4294 13.8454 13.4537C13.9081 13.4816 14.0021 13.5512 14.0544 13.6104C14.1066 13.673 14.1588 13.781 14.1693 13.8541C14.1832 13.9237 14.1797 14.0386 14.1658 14.1047C14.1519 14.1743 14.0892 14.2788 14.0161 14.3519C13.9301 14.4378 13.8408 14.4888 13.7479 14.5051C13.6713 14.519 13.5528 14.519 13.4867 14.5051C13.417 14.4911 13.3125 14.425 13.2394 14.3519C13.1535 14.2683 13.1024 14.1801 13.0861 14.0873C13.0722 14.0107 13.0722 13.8958 13.0827 13.8367C13.0931 13.774 13.1419 13.673 13.1871 13.6139C13.2289 13.5512 13.3195 13.4816 13.3857 13.4572ZM5.80705 16.4197L5.82795 23.3474C7.50318 28.0436 8.08829 29.6902 8.21368 30.0418L8.43658 30.6754H14.1832V25.2273L12.5289 21.3979C12.4941 18.2857 12.4906 18.2126 12.4244 18.1221C12.3861 18.0733 12.3095 17.9967 12.2572 17.955C12.1667 17.8888 12.1144 17.8819 11.6756 17.8819C11.2402 17.8819 11.1845 17.8888 11.094 17.955C11.0417 17.9967 10.9651 18.0733 10.9268 18.1221C10.8606 18.2161 10.8571 18.2787 10.8502 21.1055L10.8397 23.9914H9.72522V21.7634C7.35342 21.746 7.28725 21.7425 7.20018 21.6764C7.14793 21.6381 7.07131 21.5615 7.02952 21.5093C6.95638 21.4118 6.95638 21.4014 6.93896 18.3588L6.92155 15.3057L5.80705 16.4197ZM8.61072 32.9034H14.1832V31.7894H8.61072V32.9034Z" fill="white"/>
<path fill-rule="evenodd" clip-rule="evenodd" d="M16.9694 16.1934H18.0839V19.5354H14.7404V18.4214H16.9694V16.1934ZM13.6259 12.2979C13.7304 12.2945 13.9115 12.3188 14.0264 12.3502C14.1414 12.378 14.3259 12.4546 14.4409 12.5138C14.5523 12.5764 14.7265 12.7122 14.8275 12.8166C14.9285 12.9211 15.0608 13.1091 15.12 13.2344C15.1792 13.3597 15.2489 13.5686 15.2698 13.7044C15.3011 13.8889 15.3011 14.0142 15.2698 14.2091C15.2454 14.3728 15.1862 14.5607 15.1096 14.7139C15.033 14.8706 14.918 15.0272 14.7857 15.1526C14.6707 15.2674 14.4862 15.3962 14.3573 15.4589C14.2319 15.5181 14.0299 15.5877 13.9045 15.6086C13.7408 15.6399 13.605 15.6399 13.4169 15.6156C13.2567 15.5912 13.0617 15.5355 12.9119 15.4659C12.7622 15.3928 12.5915 15.2744 12.4661 15.1526C12.3338 15.0272 12.2188 14.8706 12.1422 14.7139C12.0656 14.5607 12.0064 14.3728 11.982 14.2091C11.9507 14.0142 11.9507 13.8854 11.982 13.7044C12.0029 13.5651 12.0726 13.3562 12.1422 13.217C12.2188 13.0603 12.3338 12.9037 12.4661 12.7783C12.581 12.6635 12.7622 12.5347 12.8945 12.472C13.0199 12.4128 13.1905 12.3502 13.2776 12.3328C13.3647 12.3153 13.5214 12.3014 13.6259 12.2979ZM13.1836 13.6138C13.1418 13.673 13.093 13.774 13.0826 13.8366C13.0721 13.8958 13.0721 14.0107 13.0861 14.0873C13.1023 14.1801 13.1534 14.2683 13.2393 14.3519C13.3124 14.425 13.4169 14.4911 13.4866 14.505C13.5528 14.519 13.6712 14.519 13.7478 14.505C13.8407 14.4888 13.9289 14.4377 14.0125 14.3519C14.0856 14.2788 14.1518 14.1743 14.1657 14.1047C14.1797 14.0386 14.1797 13.9237 14.1692 13.8541C14.1588 13.7809 14.1065 13.673 14.0508 13.6104C13.9986 13.5512 13.9045 13.4816 13.8418 13.4537C13.7826 13.4293 13.6781 13.4085 13.6154 13.4085C13.5562 13.4119 13.4518 13.4328 13.3856 13.4572C13.3194 13.4816 13.2289 13.5512 13.1836 13.6138Z" fill="white"/>
<path d="M22.542 7.2816V6.7246V6.1676H23.6565V7.2816H22.542Z" fill="white"/>
<path d="M3.59546 7.2816V6.7246V6.1676H4.70996V7.2816H3.59546Z" fill="white"/>
</svg>
